# xmcd
#
# Track frame offsets:
#	150
#	17556
#	37536
#	55011
#	68868
#	87156
#	103782
#	118871
#	135163
#	158294
#	179441
#	195506
#
# Disc length: 2983 seconds
# Revision: 0
# Processed by: cddbd v1.5.2PL0 Copyright (c) Steve Scherf et al.
# Submitted via: dBpowerAMP V12.0
#
DISCID=870ba50c
DTITLE=The Wayward Henrys - Cold Love
DYEAR=2016
DGENRE=Country
TTITLE0=Tears are Grey
TTITLE1=Heather
TTITLE2=Early Grave
TTITLE3=Trouble and Sin
TTITLE4=Blue Moon
TTITLE5=Too Old
TTITLE6=Bad Thing
TTITLE7=Liar
TTITLE8=Avatar
TTITLE9=In the Shadows
TTITLE10=Eden
TTITLE11=Baby don't Cry
EXTD=
EXTT0=
EXTT1=
EXTT2=
EXTT3=
EXTT4=
EXTT5=
EXTT6=
EXTT7=
EXTT8=
EXTT9=
EXTT10=
EXTT11=
PLAYORDER=
